<svg width="18" height="18" viewBox="0 0 18 18" fill="none" xmlns="http://www.w3.org/2000/svg">
<path d="M16.4401 17.5C14.5556 17.5 12.6623 17.0618 10.7603 16.1855C8.85848 15.3092 7.10948 14.073 5.51332 12.477C3.92365 10.8808 2.69065 9.13333 1.81432 7.2345C0.937984 5.33583 0.499817 3.44425 0.499817 1.55975C0.499817 1.25975 0.599817 1.00808 0.799817 0.80475C0.999817 0.601583 1.24982 0.5 1.54982 0.5H4.81132C5.06382 0.5 5.28657 0.582417 5.47957 0.74725C5.67257 0.911917 5.79532 1.11542 5.84782 1.35775L6.42107 4.3C6.46073 4.573 6.4524 4.80758 6.39607 5.00375C6.33957 5.19992 6.23823 5.36467 6.09207 5.498L3.78257 7.74625C4.15423 8.42692 4.5789 9.07083 5.05657 9.678C5.53407 10.285 6.05107 10.8648 6.60757 11.4173C7.15623 11.9661 7.73957 12.4757 8.35757 12.9462C8.97557 13.4167 9.6429 13.8546 10.3596 14.2598L12.6036 11.9963C12.7601 11.8334 12.9496 11.7193 13.1721 11.6538C13.3944 11.5884 13.6255 11.5724 13.8653 11.6058L16.6421 12.1713C16.8946 12.2379 17.1007 12.3667 17.2603 12.5577C17.42 12.7487 17.4998 12.9654 17.4998 13.2078V16.45C17.4998 16.75 17.3982 17 17.1951 17.2C16.9917 17.4 16.7401 17.5 16.4401 17.5Z" fill="#161920"/>
</svg>
