<svg width="24" height="24" viewBox="0 0 24 24" fill="none" xmlns="http://www.w3.org/2000/svg">
<mask id="mask0_15_652" style="mask-type:alpha" maskUnits="userSpaceOnUse" x="-1" y="0" width="25" height="24">
<rect x="-0.000183105" width="24" height="24" fill="#D9D9D9"/>
</mask>
<g mask="url(#mask0_15_652)">
<path d="M11.9996 20.9403C11.8048 20.9403 11.61 20.9067 11.4151 20.8395C11.2201 20.7722 11.0438 20.668 10.8861 20.527C9.9888 19.7 9.14905 18.8483 8.36688 17.972C7.58488 17.0958 6.90513 16.2199 6.32763 15.3443C5.74996 14.4686 5.29288 13.6007 4.95638 12.7405C4.61988 11.8802 4.45163 11.0493 4.45163 10.248C4.45163 7.94033 5.19805 6.07208 6.69088 4.64325C8.18388 3.21442 9.95346 2.5 11.9996 2.5C14.0458 2.5 15.8154 3.21442 17.3084 4.64325C18.8012 6.07208 19.5476 7.94033 19.5476 10.248C19.5476 11.0493 19.3794 11.8785 19.0429 12.7355C18.7064 13.5927 18.251 14.4607 17.6766 15.3395C17.1021 16.2183 16.4239 17.0942 15.6419 17.9672C14.8599 18.8404 14.0201 19.6904 13.1226 20.5173C12.9673 20.6583 12.7907 20.764 12.5929 20.8345C12.3952 20.905 12.1975 20.9403 11.9996 20.9403ZM12.0014 11.8652C12.4989 11.8652 12.9242 11.6881 13.2774 11.3338C13.6307 10.9794 13.8074 10.5535 13.8074 10.056C13.8074 9.5585 13.6302 9.13308 13.2759 8.77975C12.9215 8.42658 12.4955 8.25 11.9979 8.25C11.5004 8.25 11.075 8.42717 10.7219 8.7815C10.3685 9.13583 10.1919 9.56183 10.1919 10.0595C10.1919 10.557 10.369 10.9823 10.7234 11.3355C11.0777 11.6887 11.5037 11.8652 12.0014 11.8652Z" fill="#161920"/>
</g>
</svg>
