<svg width="24" height="24" viewBox="0 0 24 24" fill="none" xmlns="http://www.w3.org/2000/svg">
<mask id="mask0_15_647" style="mask-type:alpha" maskUnits="userSpaceOnUse" x="-1" y="0" width="25" height="24">
<rect x="-0.000183105" width="24" height="24" fill="#D9D9D9"/>
</mask>
<g mask="url(#mask0_15_647)">
<path d="M12.7498 11.6962V7.75C12.7498 7.5375 12.6779 7.35933 12.5341 7.2155C12.3902 7.07183 12.2121 7 11.9996 7C11.7869 7 11.6088 7.07183 11.4653 7.2155C11.3217 7.35933 11.2498 7.5375 11.2498 7.75V11.927C11.2498 12.0447 11.2717 12.1587 11.3153 12.269C11.3588 12.3793 11.4274 12.4813 11.5211 12.575L14.9461 16C15.0844 16.1385 15.2584 16.2093 15.4681 16.2125C15.6777 16.2157 15.855 16.1448 15.9998 16C16.1447 15.8552 16.2171 15.6795 16.2171 15.473C16.2171 15.2667 16.1447 15.0911 15.9998 14.9462L12.7498 11.6962ZM12.0016 21.5C10.6876 21.5 9.45248 21.2507 8.29632 20.752C7.14015 20.2533 6.13448 19.5766 5.27932 18.7218C4.42415 17.8669 3.74707 16.8617 3.24807 15.706C2.74923 14.5503 2.49982 13.3156 2.49982 12.0017C2.49982 10.6877 2.74915 9.45267 3.24782 8.2965C3.74648 7.14033 4.42323 6.13467 5.27807 5.2795C6.1329 4.42433 7.13815 3.74725 8.29382 3.24825C9.44948 2.74942 10.6842 2.5 11.9981 2.5C13.3121 2.5 14.5472 2.74933 15.7033 3.248C16.8595 3.74667 17.8652 4.42342 18.7203 5.27825C19.5755 6.13308 20.2526 7.13833 20.7516 8.294C21.2504 9.44967 21.4998 10.6844 21.4998 11.9983C21.4998 13.3123 21.2505 14.5473 20.7518 15.7035C20.2532 16.8597 19.5764 17.8653 18.7216 18.7205C17.8667 19.5757 16.8615 20.2528 15.7058 20.7518C14.5502 21.2506 13.3154 21.5 12.0016 21.5Z" fill="#161920"/>
</g>
</svg>
