<svg width="24" height="24" viewBox="0 0 24 24" fill="none" xmlns="http://www.w3.org/2000/svg">
<path d="M20.8996 2H3.09963C2.8079 2 2.52811 2.11589 2.32182 2.32218C2.11553 2.52847 1.99963 2.80826 1.99963 3.1V20.9C1.99963 21.1917 2.11553 21.4715 2.32182 21.6778C2.52811 21.8841 2.8079 22 3.09963 22H12.6796V14.25H10.0796V11.25H12.6796V9C12.6258 8.47176 12.6881 7.93813 12.8623 7.43654C13.0366 6.93495 13.3184 6.47755 13.6881 6.09641C14.0578 5.71528 14.5064 5.41964 15.0025 5.23024C15.4985 5.04083 16.03 4.96225 16.5596 5C17.338 4.99463 18.116 5.03469 18.8896 5.12V7.82H17.2996C16.0396 7.82 15.7996 8.42 15.7996 9.29V11.22H18.7996L18.4096 14.22H15.7996V22H20.8996C21.0441 22 21.1871 21.9715 21.3206 21.9163C21.454 21.861 21.5753 21.78 21.6775 21.6778C21.7796 21.5757 21.8606 21.4544 21.9159 21.321C21.9712 21.1875 21.9996 21.0445 21.9996 20.9V3.1C21.9996 2.95555 21.9712 2.81251 21.9159 2.67905C21.8606 2.54559 21.7796 2.42433 21.6775 2.32218C21.5753 2.22004 21.454 2.13901 21.3206 2.08373C21.1871 2.02845 21.0441 2 20.8996 2Z" fill="#161920"/>
</svg>
