<svg width="20" height="14" viewBox="0 0 20 14" fill="none" xmlns="http://www.w3.org/2000/svg">
<path d="M7.99963 10L13.1896 7L7.99963 4V10ZM19.5596 2.17C19.6896 2.64 19.7796 3.27 19.8396 4.07C19.9096 4.87 19.9396 5.56 19.9396 6.16L19.9996 7C19.9996 9.19 19.8396 10.8 19.5596 11.83C19.3096 12.73 18.7296 13.31 17.8296 13.56C17.3596 13.69 16.4996 13.78 15.1796 13.84C13.8796 13.91 12.6896 13.94 11.5896 13.94L9.99963 14C5.80963 14 3.19963 13.84 2.16963 13.56C1.26963 13.31 0.689634 12.73 0.439634 11.83C0.309634 11.36 0.219634 10.73 0.159634 9.93C0.0896339 9.13 0.0596337 8.44 0.0596337 7.84L-0.000366211 7C-0.000366211 4.81 0.159634 3.2 0.439634 2.17C0.689634 1.27 1.26963 0.69 2.16963 0.44C2.63963 0.31 3.49963 0.22 4.81963 0.16C6.11963 0.0899998 7.30963 0.0599999 8.40963 0.0599999L9.99963 0C14.1896 0 16.7996 0.16 17.8296 0.44C18.7296 0.69 19.3096 1.27 19.5596 2.17Z" fill="#161920"/>
</svg>
