<svg width="22" height="22" viewBox="0 0 22 22" fill="none" xmlns="http://www.w3.org/2000/svg">
<path fill-rule="evenodd" clip-rule="evenodd" d="M4.81105 0.349121C3.62742 0.349121 2.49224 0.819199 1.65513 1.65599C0.818014 2.49278 0.3475 3.62778 0.347046 4.81141V16.7154C0.347046 17.8993 0.817359 19.0348 1.65452 19.8719C2.49168 20.7091 3.62712 21.1794 4.81105 21.1794H16.715C17.8987 21.179 19.0337 20.7084 19.8705 19.8713C20.7073 19.0342 21.1773 17.899 21.1773 16.7154V4.81141C21.1769 3.62807 20.7066 2.49334 19.8699 1.6566C19.0331 0.819854 17.8984 0.349575 16.715 0.349121H4.81105ZM17.999 4.81826C17.999 5.15926 17.8636 5.48628 17.6225 5.7274C17.3813 5.96852 17.0543 6.10398 16.7133 6.10398C16.3723 6.10398 16.0453 5.96852 15.8042 5.7274C15.5631 5.48628 15.4276 5.15926 15.4276 4.81826C15.4276 4.47727 15.5631 4.15024 15.8042 3.90913C16.0453 3.66801 16.3723 3.53255 16.7133 3.53255C17.0543 3.53255 17.3813 3.66801 17.6225 3.90913C17.8636 4.15024 17.999 4.47727 17.999 4.81826ZM10.7648 7.19769C9.81907 7.19769 8.91212 7.57336 8.24342 8.24207C7.57472 8.91077 7.19905 9.81772 7.19905 10.7634C7.19905 11.7091 7.57472 12.616 8.24342 13.2847C8.91212 13.9534 9.81907 14.3291 10.7648 14.3291C11.7104 14.3291 12.6174 13.9534 13.2861 13.2847C13.9548 12.616 14.3305 11.7091 14.3305 10.7634C14.3305 9.81772 13.9548 8.91077 13.2861 8.24207C12.6174 7.57336 11.7104 7.19769 10.7648 7.19769ZM5.48305 10.7634C5.48305 9.36306 6.03933 8.02008 7.02952 7.02988C8.01971 6.03969 9.3627 5.48341 10.763 5.48341C12.1634 5.48341 13.5064 6.03969 14.4966 7.02988C15.4868 8.02008 16.043 9.36306 16.043 10.7634C16.043 12.1637 15.4868 13.5067 14.4966 14.4969C13.5064 15.4871 12.1634 16.0434 10.763 16.0434C9.3627 16.0434 8.01971 15.4871 7.02952 14.4969C6.03933 13.5067 5.48305 12.1637 5.48305 10.7634Z" fill="#161920"/>
</svg>
