<svg width="56" height="56" viewBox="0 0 56 56" fill="none" xmlns="http://www.w3.org/2000/svg">
<rect x="0.5" y="0.5" width="55" height="55" rx="27.5" stroke="#9F8678"/>
<path d="M32.5423 24.5138L23.2095 33.8371C23.071 33.9754 22.897 34.043 22.6875 34.0398C22.4778 34.0367 22.3038 33.9658 22.1653 33.8273C22.0269 33.6888 21.9578 33.5164 21.9578 33.3101C21.9578 33.1038 22.0269 32.9313 22.1653 32.7928L31.4885 23.4601H23.2923C23.0798 23.4601 22.9016 23.3882 22.7578 23.2443C22.6141 23.1005 22.5423 22.9223 22.5423 22.7098C22.5423 22.4972 22.6141 22.3191 22.7578 22.1756C22.9016 22.0319 23.0798 21.9601 23.2923 21.9601H33.1383C33.3944 21.9601 33.6091 22.0467 33.7823 22.2198C33.9556 22.3932 34.0423 22.6078 34.0423 22.8638V32.7101C34.0423 32.9226 33.9703 33.1007 33.8265 33.2443C33.6827 33.3882 33.5045 33.4601 33.292 33.4601C33.0793 33.4601 32.9012 33.3882 32.7575 33.2443C32.614 33.1007 32.5423 32.9226 32.5423 32.7101V24.5138Z" fill="#161920"/>
</svg>
