<svg width="56" height="56" viewBox="0 0 56 56" fill="none" xmlns="http://www.w3.org/2000/svg">
<rect x="0.5" y="0.5" width="55" height="55" rx="27.5" stroke="#9F8678"/>
<path d="M35.2215 29.1285H18.1284C17.8082 29.1285 17.5401 29.0208 17.3242 28.8053C17.1081 28.5901 17 28.3229 17 28.0037C17 27.6845 17.1081 27.4173 17.3242 27.2021C17.5401 26.9867 17.8082 26.8789 18.1284 26.8789H35.2215L30.2684 21.9414C30.0447 21.7182 29.9343 21.4571 29.937 21.1582C29.94 20.8592 30.0505 20.5934 30.2684 20.3607C30.5018 20.1282 30.7699 20.0081 31.0725 20.0004C31.3754 19.9926 31.6436 20.1051 31.877 20.3378L38.6152 27.0548C38.7562 27.1952 38.8554 27.3433 38.9131 27.4991C38.971 27.6548 39 27.823 39 28.0037C39 28.1844 38.971 28.3527 38.9131 28.5084C38.8554 28.6641 38.7562 28.8122 38.6152 28.9527L31.877 35.6696C31.6531 35.8926 31.3875 36.0027 31.08 35.9999C30.7724 35.997 30.5018 35.8792 30.2684 35.6468C30.0505 35.4141 29.9376 35.1506 29.9299 34.8564C29.9221 34.5622 30.0349 34.2987 30.2684 34.066L35.2215 29.1285Z" fill="#161920"/>
</svg>
