<svg width="56" height="56" viewBox="0 0 56 56" fill="none" xmlns="http://www.w3.org/2000/svg">
<rect x="0.5" y="0.5" width="55" height="55" rx="27.5" stroke="#9F8678"/>
<path d="M20.7785 29.1285H37.8716C38.1918 29.1285 38.4599 29.0208 38.6758 28.8053C38.8919 28.5901 39 28.3229 39 28.0037C39 27.6845 38.8919 27.4173 38.6758 27.2021C38.4599 26.9867 38.1918 26.8789 37.8716 26.8789H20.7785L25.7316 21.9414C25.9553 21.7182 26.0657 21.4571 26.063 21.1582C26.06 20.8592 25.9495 20.5934 25.7316 20.3607C25.4982 20.1282 25.2301 20.0081 24.9275 20.0004C24.6246 19.9926 24.3564 20.1051 24.123 20.3378L17.3848 27.0548C17.2438 27.1952 17.1446 27.3433 17.0869 27.4991C17.029 27.6548 17 27.823 17 28.0037C17 28.1844 17.029 28.3527 17.0869 28.5084C17.1446 28.6641 17.2438 28.8122 17.3848 28.9527L24.123 35.6696C24.3469 35.8926 24.6125 36.0027 24.92 35.9999C25.2276 35.997 25.4982 35.8792 25.7316 35.6468C25.9495 35.4141 26.0624 35.1506 26.0701 34.8564C26.0779 34.5622 25.9651 34.2987 25.7316 34.066L20.7785 29.1285Z" fill="#161920"/>
</svg>
