<svg width="56" height="56" viewBox="0 0 56 56" fill="none" xmlns="http://www.w3.org/2000/svg">
<rect x="0.5" y="0.5" width="55" height="55" rx="27.5" stroke="#9F8678"/>
<path d="M25.3347 35.439L34.9632 29.2539C35.4362 28.9537 35.6727 28.5364 35.6727 28.0022C35.6727 27.468 35.4362 27.0493 34.9632 26.7461L25.3347 20.561C24.8388 20.221 24.33 20.1937 23.8083 20.4792C23.287 20.7648 23.0263 21.21 23.0263 21.8149V34.1851C23.0263 34.79 23.287 35.2352 23.8083 35.5208C24.33 35.8063 24.8388 35.779 25.3347 35.439ZM28.0039 49C25.0992 49 22.3691 48.4488 19.8133 47.3465C17.2576 46.2442 15.0345 44.7482 13.1442 42.8586C11.2538 40.969 9.75708 38.7468 8.65403 36.1922C7.55134 33.6376 7 30.9081 7 28.0039C7 25.0992 7.55116 22.3691 8.65347 19.8133C9.75579 17.2576 11.2518 15.0345 13.1414 13.1442C15.031 11.2538 17.2532 9.75708 19.8078 8.65403C22.3624 7.55134 25.0919 7 27.9961 7C30.9008 7 33.6309 7.55116 36.1867 8.65347C38.7424 9.75579 40.9655 11.2518 42.8558 13.1414C44.7462 15.031 46.2429 17.2532 47.346 19.8078C48.4487 22.3624 49 25.0919 49 27.9961C49 30.9008 48.4488 33.6309 47.3465 36.1867C46.2442 38.7424 44.7482 40.9655 42.8586 42.8558C40.969 44.7462 38.7468 46.2429 36.1922 47.346C33.6376 48.4487 30.9081 49 28.0039 49Z" fill="#161920"/>
</svg>
