<svg width="525" height="75" viewBox="0 0 525 75" fill="none" xmlns="http://www.w3.org/2000/svg">
<path d="M1.06769 41.5703L1.35675 41.2812H3.12726L3.41632 41.5703C3.53676 44.6536 3.69334 46.5446 3.88605 47.2432C4.10284 47.9176 4.75323 48.6403 5.83722 49.4111C6.94529 50.1579 8.40265 50.7721 10.2093 51.2539C12.04 51.7357 13.8828 51.9766 15.7376 51.9766C18.291 51.9766 20.5794 51.5068 22.6028 50.5674C24.6504 49.6279 26.2402 48.2549 27.3724 46.4482C28.5045 44.6175 29.0706 42.57 29.0706 40.3057C29.0706 38.7158 28.7936 37.3307 28.2396 36.1504C27.7096 34.9701 26.9508 34.0306 25.9632 33.332C24.9997 32.6094 23.8916 32.0794 22.639 31.7422C21.3864 31.3809 19.5195 30.9954 17.0384 30.5859C14.6295 30.2005 12.7386 29.8512 11.3655 29.5381C10.0166 29.2249 8.66762 28.7432 7.31866 28.0928C5.96971 27.4424 4.83754 26.6234 3.92218 25.6357C3.0309 24.624 2.30825 23.3955 1.75421 21.9502C1.22426 20.4808 0.95929 18.915 0.95929 17.2529C0.95929 12.7484 2.52504 9.06283 5.65656 6.19629C8.78807 3.30566 12.9915 1.86035 18.2669 1.86035C20.3626 1.86035 22.639 2.12533 25.096 2.65527C27.5771 3.16113 29.8294 3.91992 31.8528 4.93164L32.1058 5.36523C31.5758 7.58138 31.2506 10.737 31.1302 14.832L30.805 15.1211H28.9261L28.637 14.8682C28.5888 11.9775 28.5166 10.1589 28.4202 9.41211C28.3239 8.66536 27.2278 7.73796 25.1321 6.62988C23.0364 5.52181 20.7601 4.96777 18.303 4.96777C16.2555 4.96777 14.3405 5.37728 12.5579 6.19629C10.7754 7.0153 9.42641 8.30404 8.51105 10.0625C7.59568 11.821 7.138 13.6156 7.138 15.4463C7.138 16.8675 7.41502 18.1322 7.96906 19.2402C8.52309 20.3242 9.2337 21.1914 10.1009 21.8418C10.9922 22.4681 12.0159 22.9378 13.1722 23.251C14.3525 23.5641 16.4964 23.9495 19.6038 24.4072C23.8675 25.0094 26.9629 25.7441 28.89 26.6113C30.8411 27.4544 32.3948 28.8034 33.5511 30.6582C34.7314 32.513 35.3216 34.7533 35.3216 37.3789C35.3216 42.5098 33.2259 46.7855 29.0345 50.2061C24.8672 53.6266 19.8086 55.3369 13.8587 55.3369C8.87238 55.3369 4.50031 54.4456 0.742493 52.6631L0.525696 52.1934C0.766581 50.6758 0.947245 47.1348 1.06769 41.5703ZM46.4173 0.487305L47.1038 0.920898C46.8388 3.69108 46.7063 9.24349 46.7063 17.5781V26.5029C48.7298 24.8408 50.6087 23.1908 52.343 21.5527C52.8489 21.0951 53.3307 20.7578 53.7884 20.541C54.246 20.3242 54.9807 20.0954 55.9925 19.8545C57.0283 19.6136 58.0882 19.4932 59.1721 19.4932C61.0029 19.4932 62.7734 19.8665 64.4837 20.6133C66.218 21.36 67.5188 22.2513 68.386 23.2871C69.2773 24.2988 69.8915 25.5033 70.2288 26.9004C70.566 28.2975 70.7346 30.0199 70.7346 32.0674V38.4268C70.7346 38.8363 70.7949 41.8353 70.9153 47.4238C70.9876 49.7122 71.2405 51.0732 71.6741 51.5068C72.1318 51.9404 73.6253 52.1572 76.1546 52.1572L76.4436 52.4463V54L76.1546 54.2891C73.0953 54.0964 71.0237 54 69.9397 54C69.3857 54 67.6272 54.0964 64.6643 54.2891L64.2307 53.8916C64.5439 50.7601 64.7005 46.6771 64.7005 41.6426V36.9092C64.7005 34.0667 64.6282 32.0192 64.4837 30.7666C64.3632 29.514 63.9658 28.3818 63.2913 27.3701C62.6168 26.3343 61.7135 25.5394 60.5813 24.9854C59.4732 24.4072 58.1243 24.1182 56.5344 24.1182C54.8964 24.1182 53.5234 24.347 52.4153 24.8047C51.3313 25.2383 50.2232 25.985 49.0911 27.0449C47.9589 28.1048 47.2724 28.9961 47.0315 29.7188C46.8147 30.4173 46.7063 31.7783 46.7063 33.8018V40.2334C46.7063 40.7633 46.7545 42.4736 46.8509 45.3643C46.9472 48.2308 47.0436 49.9049 47.1399 50.3867C47.2604 50.8685 47.429 51.2178 47.6458 51.4346C47.8626 51.6514 48.1275 51.7959 48.4407 51.8682C48.7538 51.9163 50.0546 52.0127 52.343 52.1572L52.6682 52.4463V53.9639L52.3792 54.2891C49.3681 54.0964 46.4654 54 43.6712 54C40.901 54 38.0104 54.0964 34.9993 54.2891L34.6741 53.9639V52.4463L34.9993 52.1572C37.3359 52.0127 38.6487 51.9043 38.9378 51.832C39.2509 51.7598 39.5159 51.6152 39.7327 51.3984C39.9736 51.1576 40.1301 50.8083 40.2024 50.3506C40.2988 49.8688 40.3951 48.3151 40.4915 45.6895C40.6119 43.0397 40.6721 41.0404 40.6721 39.6914V20.9746L40.5276 13.3145C40.4553 10.6406 40.371 8.78581 40.2747 7.75C40.2024 6.71419 40.094 6.09993 39.9495 5.90723C39.805 5.71452 39.552 5.56999 39.1907 5.47363C38.8294 5.37728 37.372 5.3291 34.8186 5.3291L34.4934 5.00391V3.48633L34.7825 3.16113C39.3834 2.63118 43.2617 1.73991 46.4173 0.487305ZM84.6487 3.41406C85.7808 3.41406 86.7444 3.81152 87.5393 4.60645C88.3342 5.40137 88.7317 6.36491 88.7317 7.49707C88.7317 8.60514 88.3342 9.55664 87.5393 10.3516C86.7444 11.1465 85.7808 11.5439 84.6487 11.5439C83.5406 11.5439 82.5771 11.1585 81.758 10.3877C80.9631 9.59277 80.5657 8.62923 80.5657 7.49707C80.5657 6.36491 80.9631 5.40137 81.758 4.60645C82.5771 3.81152 83.5406 3.41406 84.6487 3.41406ZM87.72 19.5654L88.4065 20.0352C88.1415 23.1908 88.009 27.2015 88.009 32.0674V40.2334C88.009 40.7633 88.0572 42.4736 88.1535 45.3643C88.2499 48.2308 88.3463 49.9049 88.4426 50.3867C88.5631 50.8685 88.7317 51.2178 88.9485 51.4346C89.1653 51.6514 89.4302 51.7959 89.7434 51.8682C90.0565 51.9163 91.3573 52.0127 93.6457 52.1572L93.9709 52.4463V53.9639L93.6819 54.2891C90.6708 54.0964 87.7681 54 84.9739 54C82.2037 54 79.3131 54.0964 76.302 54.2891L75.9768 53.9639V52.4463L76.302 52.1572C78.6386 52.0127 79.9514 51.9043 80.2405 51.832C80.5536 51.7598 80.8186 51.6152 81.0354 51.3984C81.2763 51.1576 81.4328 50.8083 81.5051 50.3506C81.6015 49.8688 81.6978 48.3151 81.7942 45.6895C81.9146 43.0397 81.9748 41.0404 81.9748 39.6914V32.5732C81.9748 31.6097 81.9267 30.2969 81.8303 28.6348C81.734 26.9727 81.6496 25.9489 81.5774 25.5635C81.5292 25.1781 81.3485 24.901 81.0354 24.7324C80.7222 24.5397 80.0959 24.4434 79.1565 24.4434L76.1213 24.4072L75.7961 24.1182V22.5645L76.0852 22.2754C80.6861 21.7214 84.5644 20.818 87.72 19.5654ZM105.175 19.5654L105.862 20.0352C105.717 21.6491 105.621 23.7689 105.572 26.3945C107.5 24.8047 109.33 23.1908 111.065 21.5527C111.571 21.0951 112.04 20.7578 112.474 20.541C112.932 20.3242 113.678 20.0954 114.714 19.8545C115.75 19.6136 116.81 19.4932 117.894 19.4932C119.724 19.4932 121.495 19.8665 123.205 20.6133C124.94 21.36 126.24 22.2513 127.108 23.2871C127.999 24.2988 128.613 25.5033 128.95 26.9004C129.288 28.2975 129.456 30.0199 129.456 32.0674V38.4268C129.456 38.8363 129.516 41.8353 129.637 47.4238C129.685 49.7122 129.938 51.0732 130.396 51.5068C130.853 51.9404 132.347 52.1572 134.876 52.1572L135.165 52.4463V54L134.876 54.2891C131.817 54.0964 129.745 54 128.661 54C128.035 54 126.277 54.0964 123.386 54.2891L122.952 53.8916C123.265 50.7601 123.422 46.6771 123.422 41.6426V36.9092C123.422 34.0667 123.35 32.0192 123.205 30.7666C123.085 29.514 122.687 28.3818 122.013 27.3701C121.338 26.3343 120.435 25.5394 119.303 24.9854C118.171 24.4072 116.822 24.1182 115.256 24.1182C114.003 24.1182 112.932 24.2507 112.04 24.5156C111.149 24.7565 110.149 25.2744 109.041 26.0693C107.933 26.8402 107.114 27.5749 106.584 28.2734C106.054 28.9479 105.729 29.5863 105.609 30.1885C105.512 30.7666 105.464 32.0192 105.464 33.9463V40.2334C105.464 40.7633 105.512 42.4736 105.609 45.3643C105.705 48.2308 105.801 49.9049 105.898 50.3867C106.018 50.8685 106.187 51.2178 106.404 51.4346C106.62 51.6514 106.885 51.7959 107.198 51.8682C107.512 51.9163 108.812 52.0127 111.101 52.1572L111.426 52.4463V53.9639L111.137 54.2891C108.126 54.0964 105.223 54 102.429 54C99.6587 54 96.7681 54.0964 93.757 54.2891L93.4318 53.9639V52.4463L93.757 52.1572C96.0936 52.0127 97.4064 51.9043 97.6955 51.832C98.0087 51.7598 98.2736 51.6152 98.4904 51.3984C98.7313 51.1576 98.8879 50.8083 98.9602 50.3506C99.0565 49.8688 99.1529 48.3151 99.2492 45.6895C99.3697 43.0397 99.4299 41.0404 99.4299 39.6914V32.5732C99.4299 31.6097 99.3817 30.2969 99.2853 28.6348C99.189 26.9727 99.1047 25.9489 99.0324 25.5635C98.9842 25.1781 98.8036 24.901 98.4904 24.7324C98.1773 24.5397 97.551 24.4434 96.6115 24.4434L93.5764 24.4072L93.2512 24.1182V22.5645L93.5402 22.2754C98.1411 21.7214 102.019 20.818 105.175 19.5654ZM164.869 48.6885L163.713 51.29C161.208 52.904 158.968 53.9518 156.992 54.4336C155.041 54.9154 153.295 55.1562 151.753 55.1562C148.862 55.1562 146.116 54.5902 143.515 53.458C140.937 52.3258 138.83 50.4108 137.192 47.7129C135.578 45.015 134.771 41.763 134.771 37.957C134.771 35.4277 135.084 33.1514 135.71 31.1279C136.336 29.0804 136.987 27.5628 137.661 26.5752C138.36 25.5876 139.528 24.4915 141.166 23.2871C142.804 22.0827 144.539 21.1191 146.369 20.3965C148.2 19.6738 150.175 19.3125 152.295 19.3125C155.186 19.3125 157.727 19.999 159.919 21.3721C162.135 22.721 163.689 24.4554 164.58 26.5752C165.472 28.695 165.917 30.9473 165.917 33.332C165.917 34.0788 165.881 34.8014 165.809 35.5L165.411 35.8975C163.773 36.2588 161.569 36.4997 158.799 36.6201C156.029 36.7406 154.198 36.8008 153.307 36.8008H141.708C141.756 41.7871 143.009 45.4606 145.466 47.8213C147.923 50.182 150.934 51.3623 154.499 51.3623C156.185 51.3623 157.799 51.0732 159.341 50.4951C160.907 49.917 162.557 49.11 164.291 48.0742L164.869 48.6885ZM141.708 33.9102C142.142 33.9824 143.804 34.0667 146.694 34.1631C149.609 34.2594 151.765 34.3076 153.162 34.3076C156.511 34.3076 158.546 34.2474 159.269 34.127C159.293 33.5488 159.305 33.1032 159.305 32.79C159.305 29.0563 158.546 26.2861 157.028 24.4795C155.511 22.6488 153.439 21.7334 150.814 21.7334C147.947 21.7334 145.707 22.7572 144.093 24.8047C142.503 26.8522 141.708 29.8874 141.708 33.9102ZM182.291 5.25684L182.002 5.00391V3.19727L182.291 2.94434C186.41 3.13704 189.59 3.2334 191.83 3.2334C192.673 3.2334 196.01 3.13704 201.839 2.94434C203.718 2.89616 205.079 2.87207 205.922 2.87207C209.174 2.87207 211.751 3.19727 213.654 3.84766C215.557 4.49805 217.087 5.6543 218.243 7.31641C219.399 8.95443 219.978 10.8213 219.978 12.917C219.978 15.5908 219.014 18.0719 217.087 20.3604C215.16 22.6488 212.028 24.2868 207.692 25.2744C210.294 25.5153 212.438 25.8646 214.124 26.3223C215.81 26.7799 217.268 27.4906 218.496 28.4541C219.725 29.3936 220.688 30.6221 221.387 32.1396C222.109 33.6572 222.471 35.4157 222.471 37.415C222.471 38.9808 222.23 40.5706 221.748 42.1846C221.266 43.7985 220.375 45.4004 219.074 46.9902C217.798 48.5801 216.244 49.9411 214.413 51.0732C212.582 52.2054 210.704 53.0244 208.776 53.5303C206.873 54.0361 204.501 54.2891 201.658 54.2891C201.08 54.2891 199.346 54.2288 196.455 54.1084C193.251 54.0361 191.517 54 191.252 54C189.614 54 187.603 54.0964 185.218 54.2891L184.929 54V52.8076L185.218 52.4463C186.615 51.82 187.422 51.3864 187.639 51.1455C187.856 50.9046 188.024 48.7728 188.145 44.75C188.289 40.7272 188.361 37.6559 188.361 35.5361V22.2754L188.325 14.0732C188.325 12.2907 188.301 10.8454 188.253 9.7373C188.205 8.60514 188.133 7.79818 188.036 7.31641C187.964 6.83464 187.831 6.4974 187.639 6.30469C187.446 6.11198 187.169 5.9554 186.808 5.83496C186.47 5.69043 185.88 5.56999 185.037 5.47363L182.291 5.25684ZM195.263 24.2266C196.467 24.3229 197.828 24.3711 199.346 24.3711C204.332 24.3711 207.801 23.4798 209.752 21.6973C211.703 19.9147 212.679 17.4697 212.679 14.3623C212.679 12.5557 212.305 11.026 211.559 9.77344C210.812 8.49674 209.632 7.52116 208.018 6.84668C206.428 6.1722 204.26 5.83496 201.514 5.83496C199.274 5.83496 197.298 6.01562 195.588 6.37695C195.371 8.54492 195.263 12.3268 195.263 17.7227V24.2266ZM195.335 50.5674C197.19 51.001 199.093 51.2178 201.044 51.2178C204.489 51.2178 207.187 50.6637 209.138 49.5557C211.089 48.4476 212.522 46.918 213.438 44.9668C214.377 42.9915 214.847 40.8477 214.847 38.5352C214.847 35.0664 213.859 32.2962 211.884 30.2246C209.933 28.1289 205.693 27.0811 199.165 27.0811C198.081 27.0811 196.78 27.1292 195.263 27.2256V39.5469L195.335 50.5674ZM237.144 19.5654L237.83 20.0352C237.686 21.4323 237.577 23.9134 237.505 27.4785L240.215 24.0459C241.106 22.9137 241.889 22.0465 242.564 21.4443C243.262 20.818 244.069 20.3363 244.984 19.999C245.9 19.6618 246.839 19.4932 247.803 19.4932C248.863 19.4932 249.862 19.71 250.802 20.1436L251.055 20.6494C250.669 23.8532 250.453 26.6715 250.404 29.1045H248.778C247.815 26.8883 246.261 25.7803 244.117 25.7803C242.624 25.7803 241.323 26.262 240.215 27.2256C239.107 28.165 238.36 29.3574 237.975 30.8027C237.613 32.224 237.433 34.0306 237.433 36.2227V40.2334C237.433 40.9561 237.481 42.7266 237.577 45.5449C237.674 48.3633 237.77 49.9893 237.866 50.4229C237.987 50.8564 238.155 51.1816 238.372 51.3984C238.613 51.5911 238.914 51.7236 239.275 51.7959C239.661 51.8682 241.383 51.9886 244.442 52.1572L244.768 52.4463V53.9639L244.442 54.2891C241.239 54.0964 237.89 54 234.397 54C231.627 54 228.737 54.0964 225.726 54.2891L225.4 53.9639V52.4463L225.726 52.1572C228.062 52.0127 229.375 51.9043 229.664 51.832C229.977 51.7598 230.242 51.6152 230.459 51.3984C230.7 51.1576 230.856 50.8083 230.929 50.3506C231.025 49.8688 231.121 48.3151 231.218 45.6895C231.338 43.0397 231.398 41.0404 231.398 39.6914V32.5732C231.398 31.6097 231.35 30.2969 231.254 28.6348C231.158 26.9727 231.073 25.9489 231.001 25.5635C230.953 25.1781 230.772 24.901 230.459 24.7324C230.146 24.5397 229.52 24.4434 228.58 24.4434L225.545 24.4072L225.22 24.1182V22.5645L225.509 22.2754C230.11 21.7214 233.988 20.818 237.144 19.5654ZM259.982 3.41406C261.115 3.41406 262.078 3.81152 262.873 4.60645C263.668 5.40137 264.065 6.36491 264.065 7.49707C264.065 8.60514 263.668 9.55664 262.873 10.3516C262.078 11.1465 261.115 11.5439 259.982 11.5439C258.874 11.5439 257.911 11.1585 257.092 10.3877C256.297 9.59277 255.899 8.62923 255.899 7.49707C255.899 6.36491 256.297 5.40137 257.092 4.60645C257.911 3.81152 258.874 3.41406 259.982 3.41406ZM263.054 19.5654L263.74 20.0352C263.475 23.1908 263.343 27.2015 263.343 32.0674V40.2334C263.343 40.7633 263.391 42.4736 263.487 45.3643C263.584 48.2308 263.68 49.9049 263.776 50.3867C263.897 50.8685 264.065 51.2178 264.282 51.4346C264.499 51.6514 264.764 51.7959 265.077 51.8682C265.39 51.9163 266.691 52.0127 268.979 52.1572L269.305 52.4463V53.9639L269.016 54.2891C266.005 54.0964 263.102 54 260.308 54C257.537 54 254.647 54.0964 251.636 54.2891L251.311 53.9639V52.4463L251.636 52.1572C253.972 52.0127 255.285 51.9043 255.574 51.832C255.887 51.7598 256.152 51.6152 256.369 51.3984C256.61 51.1576 256.767 50.8083 256.839 50.3506C256.935 49.8688 257.032 48.3151 257.128 45.6895C257.248 43.0397 257.309 41.0404 257.309 39.6914V32.5732C257.309 31.6097 257.26 30.2969 257.164 28.6348C257.068 26.9727 256.983 25.9489 256.911 25.5635C256.863 25.1781 256.682 24.901 256.369 24.7324C256.056 24.5397 255.43 24.4434 254.49 24.4434L251.455 24.4072L251.13 24.1182V22.5645L251.419 22.2754C256.02 21.7214 259.898 20.818 263.054 19.5654ZM308.006 22.0586L308.295 22.709C307.307 24.2266 306.693 25.2142 306.452 25.6719H299.731C300.406 26.9967 300.743 28.3818 300.743 29.8271C300.743 31.5374 300.346 33.1995 299.551 34.8135C298.78 36.4274 297.696 37.8005 296.299 38.9326C294.902 40.0648 293.312 40.9681 291.529 41.6426C289.771 42.3171 287.759 42.6543 285.495 42.6543H283.833C282.412 43.7865 281.496 44.6296 281.087 45.1836C280.677 45.7376 280.473 46.3037 280.473 46.8818C280.473 47.9417 280.954 48.6885 281.918 49.1221C282.906 49.5557 284.929 49.7725 287.988 49.7725L296.082 49.6641C298.635 49.6641 300.587 49.9652 301.935 50.5674C303.309 51.1696 304.417 52.2536 305.26 53.8193C306.103 55.361 306.524 56.999 306.524 58.7334C306.524 61.3831 305.657 64.0208 303.923 66.6465C302.213 69.2962 299.731 71.3076 296.479 72.6807C293.227 74.0537 289.759 74.7402 286.073 74.7402C283.977 74.7402 282.002 74.5114 280.147 74.0537C278.317 73.596 276.703 72.8975 275.306 71.958C273.933 71.0426 272.824 69.8382 271.981 68.3447C271.138 66.8512 270.717 65.2975 270.717 63.6836C270.717 62.7923 270.849 61.8529 271.114 60.8652C271.379 59.9017 271.885 58.8538 272.632 57.7217L279.172 54.0723C277.076 53.4219 275.751 52.7835 275.197 52.1572C274.667 51.5068 274.402 50.736 274.402 49.8447C274.402 48.9294 274.703 47.8454 275.306 46.5928L281.123 42.4014C277.702 41.5101 275.39 40.1732 274.185 38.3906C273.005 36.6081 272.415 34.6569 272.415 32.5371C272.415 30.5859 272.837 28.7311 273.68 26.9727C274.523 25.1901 275.787 23.7689 277.474 22.709C279.184 21.6491 281.087 20.818 283.183 20.2158C285.302 19.5895 287.229 19.2764 288.964 19.2764C291.975 19.2764 294.841 20.252 297.563 22.2031C301.923 22.2031 305.404 22.1549 308.006 22.0586ZM278.63 30.4414C278.63 31.9108 278.919 33.4886 279.497 35.1748C280.075 36.861 281.003 38.1377 282.279 39.0049C283.58 39.8721 285.037 40.3057 286.651 40.3057C288.795 40.3057 290.638 39.6071 292.18 38.21C293.745 36.8128 294.528 34.6328 294.528 31.6699C294.528 29.1647 293.818 26.9124 292.396 24.9131C290.975 22.9137 288.964 21.9141 286.362 21.9141C284.17 21.9141 282.327 22.6367 280.834 24.082C279.365 25.5033 278.63 27.623 278.63 30.4414ZM289.217 54.6865C285.338 54.6865 283.098 54.7347 282.496 54.8311C281.918 54.9274 281.087 55.3369 280.003 56.0596C278.919 56.7822 278.028 57.7578 277.329 58.9863C276.655 60.2389 276.317 61.6361 276.317 63.1777C276.317 65.8997 277.329 68.1159 279.352 69.8262C281.376 71.5365 284.074 72.3916 287.446 72.3916C289.976 72.3916 292.312 71.8617 294.456 70.8018C296.6 69.7419 298.178 68.3206 299.189 66.5381C300.225 64.7555 300.743 63.0452 300.743 61.4072C300.743 59.7692 300.31 58.36 299.442 57.1797C298.599 56.0234 297.491 55.3128 296.118 55.0479C294.769 54.807 292.469 54.6865 289.217 54.6865ZM318.668 0.487305L319.354 0.920898C319.089 3.69108 318.957 9.24349 318.957 17.5781V26.5029C320.98 24.8408 322.859 23.1908 324.594 21.5527C325.1 21.0951 325.581 20.7578 326.039 20.541C326.497 20.3242 327.231 20.0954 328.243 19.8545C329.279 19.6136 330.339 19.4932 331.423 19.4932C333.253 19.4932 335.024 19.8665 336.734 20.6133C338.469 21.36 339.769 22.2513 340.637 23.2871C341.528 24.2988 342.142 25.5033 342.479 26.9004C342.817 28.2975 342.985 30.0199 342.985 32.0674V38.4268C342.985 38.8363 343.045 41.8353 343.166 47.4238C343.238 49.7122 343.491 51.0732 343.925 51.5068C344.382 51.9404 345.876 52.1572 348.405 52.1572L348.694 52.4463V54L348.405 54.2891C345.346 54.0964 343.274 54 342.19 54C341.636 54 339.878 54.0964 336.915 54.2891L336.481 53.8916C336.795 50.7601 336.951 46.6771 336.951 41.6426V36.9092C336.951 34.0667 336.879 32.0192 336.734 30.7666C336.614 29.514 336.216 28.3818 335.542 27.3701C334.867 26.3343 333.964 25.5394 332.832 24.9854C331.724 24.4072 330.375 24.1182 328.785 24.1182C327.147 24.1182 325.774 24.347 324.666 24.8047C323.582 25.2383 322.474 25.985 321.342 27.0449C320.21 28.1048 319.523 28.9961 319.282 29.7188C319.065 30.4173 318.957 31.7783 318.957 33.8018V40.2334C318.957 40.7633 319.005 42.4736 319.101 45.3643C319.198 48.2308 319.294 49.9049 319.391 50.3867C319.511 50.8685 319.68 51.2178 319.896 51.4346C320.113 51.6514 320.378 51.7959 320.691 51.8682C321.004 51.9163 322.305 52.0127 324.594 52.1572L324.919 52.4463V53.9639L324.63 54.2891C321.619 54.0964 318.716 54 315.922 54C313.152 54 310.261 54.0964 307.25 54.2891L306.925 53.9639V52.4463L307.25 52.1572C309.586 52.0127 310.899 51.9043 311.188 51.832C311.502 51.7598 311.767 51.6152 311.983 51.3984C312.224 51.1576 312.381 50.8083 312.453 50.3506C312.549 49.8688 312.646 48.3151 312.742 45.6895C312.863 43.0397 312.923 41.0404 312.923 39.6914V20.9746L312.778 13.3145C312.706 10.6406 312.622 8.78581 312.525 7.75C312.453 6.71419 312.345 6.09993 312.2 5.90723C312.056 5.71452 311.803 5.56999 311.441 5.47363C311.08 5.37728 309.623 5.3291 307.069 5.3291L306.744 5.00391V3.48633L307.033 3.16113C311.634 2.63118 315.512 1.73991 318.668 0.487305ZM348.155 25.6357V24.6963L348.408 24.335C350.672 23.4919 352.503 22.709 353.9 21.9863C353.9 15.6992 353.828 12.0378 353.683 11.002C356.165 10.1348 358.2 9.20736 359.79 8.21973L360.657 8.94238C360.416 10.46 360.127 14.8682 359.79 22.167C360.994 22.1911 362.295 22.2031 363.692 22.2031C366.535 22.2031 368.57 22.1309 369.799 21.9863L370.052 22.2393L369.365 25.2744L369.076 25.5996C367.848 25.5755 366.487 25.5635 364.993 25.5635C363.644 25.5635 361.91 25.5755 359.79 25.5996L359.573 40.3057C359.573 43.7021 359.645 45.9303 359.79 46.9902C359.959 48.026 360.392 48.8451 361.091 49.4473C361.813 50.0254 362.873 50.3145 364.27 50.3145C365.884 50.3145 367.378 49.8929 368.751 49.0498L369.618 50.3506C369.04 50.7601 367.655 51.9645 365.463 53.9639C364.21 54.542 362.933 54.8311 361.633 54.8311C356.213 54.8311 353.503 52.2054 353.503 46.9541C353.503 45.027 353.551 43.389 353.647 42.04C353.671 41.6305 353.683 41.209 353.683 40.7754V25.7803H352.202C351.118 25.7803 349.877 25.8285 348.48 25.9248L348.155 25.6357ZM398.711 54.6865L393.833 38.499C392.917 35.4639 392.026 32.6455 391.159 30.0439C390.316 27.4424 389.75 25.7923 389.461 25.0938C389.196 24.3711 388.907 23.8532 388.594 23.54C388.28 23.2269 387.943 23.0101 387.582 22.8896C387.22 22.7692 386.197 22.6126 384.511 22.4199L384.258 22.1309V20.6494L384.583 20.3242C386.317 20.4928 389.003 20.5771 392.64 20.5771C396.567 20.5771 399.518 20.4928 401.493 20.3242L401.818 20.6494V22.1309L401.565 22.4199C398.94 22.444 397.374 22.5885 396.868 22.8535C396.386 23.1185 396.145 23.528 396.145 24.082C396.145 24.6361 396.495 26.1175 397.193 28.5264L400.553 40.1611C401.083 41.9678 401.758 44.0755 402.577 46.4844C403.227 44.9186 404.143 42.8229 405.323 40.1973L410.635 28.3096C411.911 25.4912 413.092 22.6488 414.176 19.7822H415.946L419.198 28.5264L423.353 39.0049L426.569 46.9541L429.279 39.8359C430.845 35.765 432.061 32.3685 432.928 29.6465C433.796 26.9245 434.229 25.1781 434.229 24.4072C434.229 23.6364 433.964 23.1305 433.434 22.8896C432.904 22.6488 431.483 22.4922 429.171 22.4199L428.845 22.1309V20.6133L429.171 20.3242C431.965 20.4928 434.314 20.5771 436.217 20.5771C438.625 20.5771 440.89 20.4928 443.01 20.3242L443.299 20.6133V22.0947L443.01 22.4199C441.709 22.4681 440.817 22.6126 440.336 22.8535C439.878 23.0944 439.348 23.6846 438.746 24.624C438.168 25.5394 437.276 27.4183 436.072 30.2607L432.495 38.752L430.869 42.7988L428.303 49.5195C427.509 51.6152 426.93 53.3376 426.569 54.6865H423.173L421.438 50.1699L413.2 29.4658L409.731 36.9453L405.72 45.9062L402.179 54.6865H398.711ZM452.371 3.41406C453.503 3.41406 454.467 3.81152 455.261 4.60645C456.056 5.40137 456.454 6.36491 456.454 7.49707C456.454 8.60514 456.056 9.55664 455.261 10.3516C454.467 11.1465 453.503 11.5439 452.371 11.5439C451.263 11.5439 450.299 11.1585 449.48 10.3877C448.685 9.59277 448.288 8.62923 448.288 7.49707C448.288 6.36491 448.685 5.40137 449.48 4.60645C450.299 3.81152 451.263 3.41406 452.371 3.41406ZM455.442 19.5654L456.129 20.0352C455.864 23.1908 455.731 27.2015 455.731 32.0674V40.2334C455.731 40.7633 455.779 42.4736 455.876 45.3643C455.972 48.2308 456.068 49.9049 456.165 50.3867C456.285 50.8685 456.454 51.2178 456.671 51.4346C456.887 51.6514 457.152 51.7959 457.466 51.8682C457.779 51.9163 459.08 52.0127 461.368 52.1572L461.693 52.4463V53.9639L461.404 54.2891C458.393 54.0964 455.49 54 452.696 54C449.926 54 447.035 54.0964 444.024 54.2891L443.699 53.9639V52.4463L444.024 52.1572C446.361 52.0127 447.674 51.9043 447.963 51.832C448.276 51.7598 448.541 51.6152 448.758 51.3984C448.998 51.1576 449.155 50.8083 449.227 50.3506C449.324 49.8688 449.42 48.3151 449.516 45.6895C449.637 43.0397 449.697 41.0404 449.697 39.6914V32.5732C449.697 31.6097 449.649 30.2969 449.552 28.6348C449.456 26.9727 449.372 25.9489 449.3 25.5635C449.251 25.1781 449.071 24.901 448.758 24.7324C448.444 24.5397 447.818 24.4434 446.879 24.4434L443.844 24.4072L443.518 24.1182V22.5645L443.807 22.2754C448.408 21.7214 452.287 20.818 455.442 19.5654ZM462.202 25.6357V24.6963L462.455 24.335C464.719 23.4919 466.55 22.709 467.947 21.9863C467.947 15.6992 467.875 12.0378 467.73 11.002C470.211 10.1348 472.247 9.20736 473.837 8.21973L474.704 8.94238C474.463 10.46 474.174 14.8682 473.837 22.167C475.041 22.1911 476.342 22.2031 477.739 22.2031C480.581 22.2031 482.617 22.1309 483.845 21.9863L484.098 22.2393L483.412 25.2744L483.123 25.5996C481.894 25.5755 480.533 25.5635 479.04 25.5635C477.691 25.5635 475.956 25.5755 473.837 25.5996L473.62 40.3057C473.62 43.7021 473.692 45.9303 473.837 46.9902C474.005 48.026 474.439 48.8451 475.137 49.4473C475.86 50.0254 476.92 50.3145 478.317 50.3145C479.931 50.3145 481.425 49.8929 482.798 49.0498L483.665 50.3506C483.087 50.7601 481.702 51.9645 479.509 53.9639C478.257 54.542 476.98 54.8311 475.679 54.8311C470.259 54.8311 467.55 52.2054 467.55 46.9541C467.55 45.027 467.598 43.389 467.694 42.04C467.718 41.6305 467.73 41.209 467.73 40.7754V25.7803H466.249C465.165 25.7803 463.924 25.8285 462.527 25.9248L462.202 25.6357ZM494.002 0.487305L494.688 0.920898C494.423 3.69108 494.291 9.24349 494.291 17.5781V26.5029C496.314 24.8408 498.193 23.1908 499.927 21.5527C500.433 21.0951 500.915 20.7578 501.373 20.541C501.83 20.3242 502.565 20.0954 503.577 19.8545C504.613 19.6136 505.673 19.4932 506.757 19.4932C508.587 19.4932 510.358 19.8665 512.068 20.6133C513.802 21.36 515.103 22.2513 515.97 23.2871C516.862 24.2988 517.476 25.5033 517.813 26.9004C518.15 28.2975 518.319 30.0199 518.319 32.0674V38.4268C518.319 38.8363 518.379 41.8353 518.5 47.4238C518.572 49.7122 518.825 51.0732 519.258 51.5068C519.716 51.9404 521.21 52.1572 523.739 52.1572L524.028 52.4463V54L523.739 54.2891C520.68 54.0964 518.608 54 517.524 54C516.97 54 515.212 54.0964 512.249 54.2891L511.815 53.8916C512.128 50.7601 512.285 46.6771 512.285 41.6426V36.9092C512.285 34.0667 512.213 32.0192 512.068 30.7666C511.948 29.514 511.55 28.3818 510.876 27.3701C510.201 26.3343 509.298 25.5394 508.166 24.9854C507.058 24.4072 505.709 24.1182 504.119 24.1182C502.481 24.1182 501.108 24.347 500 24.8047C498.916 25.2383 497.808 25.985 496.675 27.0449C495.543 28.1048 494.857 28.9961 494.616 29.7188C494.399 30.4173 494.291 31.7783 494.291 33.8018V40.2334C494.291 40.7633 494.339 42.4736 494.435 45.3643C494.532 48.2308 494.628 49.9049 494.724 50.3867C494.845 50.8685 495.013 51.2178 495.23 51.4346C495.447 51.6514 495.712 51.7959 496.025 51.8682C496.338 51.9163 497.639 52.0127 499.927 52.1572L500.253 52.4463V53.9639L499.964 54.2891C496.952 54.0964 494.05 54 491.256 54C488.485 54 485.595 54.0964 482.584 54.2891L482.258 53.9639V52.4463L482.584 52.1572C484.92 52.0127 486.233 51.9043 486.522 51.832C486.835 51.7598 487.1 51.6152 487.317 51.3984C487.558 51.1576 487.715 50.8083 487.787 50.3506C487.883 49.8688 487.98 48.3151 488.076 45.6895C488.196 43.0397 488.257 41.0404 488.257 39.6914V20.9746L488.112 13.3145C488.04 10.6406 487.955 8.78581 487.859 7.75C487.787 6.71419 487.678 6.09993 487.534 5.90723C487.389 5.71452 487.136 5.56999 486.775 5.47363C486.414 5.37728 484.956 5.3291 482.403 5.3291L482.078 5.00391V3.48633L482.367 3.16113C486.968 2.63118 490.846 1.73991 494.002 0.487305Z" fill="url(#paint0_radial_40_1798)"/>
<defs>
<radialGradient id="paint0_radial_40_1798" cx="0" cy="0" r="1" gradientUnits="userSpaceOnUse" gradientTransform="translate(261.5 37) scale(263.5 284.5)">
<stop stop-color="#FCA412"/>
<stop offset="1" stop-color="#161920"/>
</radialGradient>
</defs>
</svg>
