<svg width="626" height="58" viewBox="0 0 626 58" fill="none" xmlns="http://www.w3.org/2000/svg">
<path d="M1.00479 43.377H2.5585L2.8837 43.7021C2.93187 45.7256 3.05232 47.46 3.24503 48.9053C3.99177 50.0374 5.28051 50.9648 7.11124 51.6875C8.94197 52.3861 10.7486 52.7354 12.5312 52.7354C15.0845 52.7354 17.12 52.0488 18.6376 50.6758C20.1793 49.3027 20.9501 47.6647 20.9501 45.7617C20.9501 44.7259 20.6731 43.8346 20.119 43.0879C19.565 42.3171 18.7219 41.6908 17.5898 41.209C16.4817 40.7031 14.4823 40.113 11.5917 39.4385C9.11059 38.8604 7.37621 38.4147 6.38858 38.1016C5.40095 37.7643 4.44945 37.2103 3.53409 36.4395C2.61872 35.6686 1.92016 34.7292 1.43839 33.6211C0.956614 32.4889 0.715729 31.2484 0.715729 29.8994C0.715729 26.6715 1.99242 24.0941 4.54581 22.167C7.12328 20.2158 10.3271 19.2402 14.1571 19.2402C15.7711 19.2402 17.5295 19.4691 19.4325 19.9268C21.3355 20.3604 22.7808 20.7819 23.7685 21.1914L24.0937 21.6973C23.901 22.6608 23.7805 25.1901 23.7323 29.2852L23.4071 29.6104H21.9618L21.6366 29.2852C21.5403 27.8158 21.4078 26.792 21.2392 26.2139C21.0705 25.6117 20.637 24.9733 19.9384 24.2988C19.2398 23.6003 18.2522 23.0221 16.9755 22.5645C15.6988 22.0827 14.3498 21.8418 12.9286 21.8418C11.4592 21.8418 10.2187 22.0586 9.20694 22.4922C8.21931 22.9258 7.41234 23.5882 6.78604 24.4795C6.18383 25.3467 5.88272 26.4066 5.88272 27.6592C5.88272 28.5745 6.06339 29.3936 6.42471 30.1162C6.81013 30.8389 7.38825 31.429 8.15909 31.8867C8.92992 32.3203 9.73689 32.6335 10.58 32.8262L14.5185 33.8379C17.8909 34.6569 20.2997 35.3675 21.745 35.9697C23.2144 36.5719 24.3466 37.4873 25.1415 38.7158C25.9364 39.9202 26.3339 41.3896 26.3339 43.124C26.3339 46.4482 24.9608 49.3027 22.2148 51.6875C19.4687 54.0723 15.9397 55.2646 11.6278 55.2646C10.1103 55.2646 8.21931 55.096 5.95499 54.7588C3.71475 54.4215 1.79971 54.0482 0.209869 53.6387L0.0292053 53.1689L0.390533 50.748C0.510976 50.0013 0.583242 49.2546 0.60733 48.5078C0.631419 47.737 0.655507 46.1351 0.679596 43.7021L1.00479 43.377ZM39.2723 0.487305L39.9589 0.920898C39.6939 3.69108 39.5614 9.24349 39.5614 17.5781V40.2334C39.5614 40.7633 39.6096 42.4736 39.7059 45.3643C39.8023 48.2308 39.8986 49.9049 39.995 50.3867C40.1154 50.8685 40.284 51.2178 40.5008 51.4346C40.7176 51.6514 40.9826 51.7959 41.2958 51.8682C41.6089 51.9163 42.9097 52.0127 45.1981 52.1572L45.5233 52.4463V53.9639L45.2342 54.2891C42.2232 54.0964 39.3205 54 36.5262 54C33.7561 54 30.8654 54.0964 27.8544 54.2891L27.5292 53.9639V52.4463L27.8544 52.1572C30.191 52.0127 31.5038 51.9043 31.7928 51.832C32.106 51.7598 32.371 51.6152 32.5878 51.3984C32.8286 51.1576 32.9852 50.8083 33.0575 50.3506C33.1538 49.8688 33.2502 48.3151 33.3465 45.6895C33.467 43.0397 33.5272 41.0404 33.5272 39.6914V20.9746L33.3827 13.3145C33.3104 10.6406 33.2261 8.78581 33.1298 7.75C33.0575 6.71419 32.9491 6.09993 32.8046 5.90723C32.66 5.71452 32.4071 5.56999 32.0458 5.47363C31.6844 5.37728 30.2271 5.3291 27.6737 5.3291L27.3485 5.00391V3.48633L27.6376 3.16113C32.2385 2.63118 36.1167 1.73991 39.2723 0.487305ZM76.2752 48.6885L75.119 51.29C72.6138 52.904 70.3735 53.9518 68.3983 54.4336C66.4471 54.9154 64.7007 55.1562 63.159 55.1562C60.2684 55.1562 57.5223 54.5902 54.9207 53.458C52.3433 52.3258 50.2355 50.4108 48.5975 47.7129C46.9836 45.015 46.1766 41.763 46.1766 37.957C46.1766 35.4277 46.4897 33.1514 47.116 31.1279C47.7423 29.0804 48.3927 27.5628 49.0672 26.5752C49.7658 25.5876 50.9341 24.4915 52.5721 23.2871C54.2101 22.0827 55.9445 21.1191 57.7752 20.3965C59.606 19.6738 61.5812 19.3125 63.701 19.3125C66.5916 19.3125 69.133 19.999 71.325 21.3721C73.5412 22.721 75.0949 24.4554 75.9862 26.5752C76.8774 28.695 77.3231 30.9473 77.3231 33.332C77.3231 34.0788 77.2869 34.8014 77.2147 35.5L76.8172 35.8975C75.1792 36.2588 72.9751 36.4997 70.2049 36.6201C67.4347 36.7406 65.604 36.8008 64.7127 36.8008H53.1141C53.1623 41.7871 54.4149 45.4606 56.8719 47.8213C59.3289 50.182 62.34 51.3623 65.9051 51.3623C67.5913 51.3623 69.2052 51.0732 70.7469 50.4951C72.3127 49.917 73.9627 49.11 75.6971 48.0742L76.2752 48.6885ZM53.1141 33.9102C53.5477 33.9824 55.2098 34.0667 58.1004 34.1631C61.0151 34.2594 63.1711 34.3076 64.5682 34.3076C67.9165 34.3076 69.952 34.2474 70.6746 34.127C70.6987 33.5488 70.7108 33.1032 70.7108 32.79C70.7108 29.0563 69.952 26.2861 68.4344 24.4795C66.9168 22.6488 64.8452 21.7334 62.2196 21.7334C59.353 21.7334 57.1128 22.7572 55.4989 24.8047C53.909 26.8522 53.1141 29.8874 53.1141 33.9102ZM108.798 48.6885L107.641 51.29C105.136 52.904 102.896 53.9518 100.921 54.4336C98.9695 54.9154 97.2231 55.1562 95.6814 55.1562C92.7908 55.1562 90.0447 54.5902 87.4432 53.458C84.8657 52.3258 82.7579 50.4108 81.1199 47.7129C79.506 45.015 78.699 41.763 78.699 37.957C78.699 35.4277 79.0122 33.1514 79.6385 31.1279C80.2648 29.0804 80.9152 27.5628 81.5896 26.5752C82.2882 25.5876 83.4565 24.4915 85.0945 23.2871C86.7325 22.0827 88.4669 21.1191 90.2976 20.3965C92.1284 19.6738 94.1036 19.3125 96.2234 19.3125C99.1141 19.3125 101.655 19.999 103.847 21.3721C106.064 22.721 107.617 24.4554 108.509 26.5752C109.4 28.695 109.845 30.9473 109.845 33.332C109.845 34.0788 109.809 34.8014 109.737 35.5L109.34 35.8975C107.702 36.2588 105.498 36.4997 102.727 36.6201C99.9572 36.7406 98.1264 36.8008 97.2351 36.8008H85.6365C85.6847 41.7871 86.9373 45.4606 89.3943 47.8213C91.8514 50.182 94.8624 51.3623 98.4275 51.3623C100.114 51.3623 101.728 51.0732 103.269 50.4951C104.835 49.917 106.485 49.11 108.22 48.0742L108.798 48.6885ZM85.6365 33.9102C86.0701 33.9824 87.7322 34.0667 90.6228 34.1631C93.5376 34.2594 95.6935 34.3076 97.0906 34.3076C100.439 34.3076 102.474 34.2474 103.197 34.127C103.221 33.5488 103.233 33.1032 103.233 32.79C103.233 29.0563 102.474 26.2861 100.957 24.4795C99.4392 22.6488 97.3676 21.7334 94.742 21.7334C91.8754 21.7334 89.6352 22.7572 88.0213 24.8047C86.4314 26.8522 85.6365 29.8874 85.6365 33.9102ZM122.531 0.487305L123.218 0.920898C122.953 3.69108 122.82 9.24349 122.82 17.5781V34.5244C123.639 34.0426 125.253 32.8382 127.662 30.9111C130.071 28.96 132.612 26.7438 135.286 24.2627C137.984 21.7575 139.369 20.3965 139.441 20.1797C141.489 20.252 142.717 20.2881 143.127 20.2881C143.681 20.2881 144.801 20.252 146.487 20.1797L146.812 20.5049V21.9141L146.523 22.2393C145.319 22.3115 144.391 22.4681 143.741 22.709C143.115 22.9499 141.814 23.7448 139.839 25.0938C137.887 26.4427 135.575 28.2132 132.901 30.4053L129.396 33.2598C130.673 34.7533 132.901 37.1019 136.081 40.3057C139.285 43.4854 141.874 45.9544 143.849 47.7129C145.825 49.4714 147.113 50.4831 147.716 50.748C148.318 50.9889 148.956 51.1094 149.631 51.1094V52.6631C148.739 52.8317 146.439 53.5664 142.729 54.8672C140.224 52.6992 138.634 51.266 137.96 50.5674L135.286 47.8213L132.106 44.6055C131.119 43.6178 129.794 42.3652 128.132 40.8477L122.82 35.9336V40.2334C122.82 40.7633 122.868 42.4736 122.965 45.3643C123.061 48.2308 123.157 49.9049 123.254 50.3867C123.374 50.8685 123.543 51.2178 123.76 51.4346C123.976 51.6514 124.241 51.7959 124.554 51.8682C124.868 51.9163 126.168 52.0127 128.457 52.1572L128.782 52.4463V53.9639L128.493 54.2891C125.482 54.0964 122.579 54 119.785 54C117.015 54 114.124 54.0964 111.113 54.2891L110.788 53.9639V52.4463L111.113 52.1572C113.45 52.0127 114.762 51.9043 115.052 51.832C115.365 51.7598 115.63 51.6152 115.846 51.3984C116.087 51.1576 116.244 50.8083 116.316 50.3506C116.413 49.8688 116.509 48.3151 116.605 45.6895C116.726 43.0397 116.786 41.0404 116.786 39.6914V20.9746L116.641 13.3145C116.569 10.6406 116.485 8.78581 116.388 7.75C116.316 6.71419 116.208 6.09993 116.063 5.90723C115.919 5.71452 115.666 5.56999 115.304 5.47363C114.943 5.37728 113.486 5.3291 110.932 5.3291L110.607 5.00391V3.48633L110.896 3.16113C115.497 2.63118 119.375 1.73991 122.531 0.487305ZM167.016 52.3379C167.859 49.1582 168.45 45.6413 168.787 41.7871L169.148 41.4619H170.666L170.919 41.751L171.063 48.6885C172.846 50.1097 174.544 51.0251 176.158 51.4346C177.796 51.82 179.338 52.0127 180.783 52.0127C185.095 52.0127 188.323 50.7842 190.466 48.3271C192.61 45.846 193.682 43.0277 193.682 39.8721C193.682 38.2581 193.357 36.8851 192.707 35.7529C192.056 34.6208 191.189 33.7777 190.105 33.2236C189.045 32.6696 187.07 32.0674 184.179 31.417C180.855 30.6702 178.398 29.8874 176.808 29.0684C175.218 28.2493 173.99 27.0329 173.123 25.4189C172.256 23.7809 171.822 21.7936 171.822 19.457C171.822 16.0365 172.773 13.0133 174.676 10.3877C176.579 7.73796 178.988 5.71452 181.903 4.31738C184.818 2.89616 188.07 2.18555 191.659 2.18555C195.176 2.18555 198.187 2.93229 200.692 4.42578L200.837 4.85938C200.258 7.22005 199.716 10.3636 199.211 14.29L198.922 14.5791H197.332L197.043 14.29V8.97852C195.164 6.76237 192.369 5.6543 188.66 5.6543C186.468 5.6543 184.48 6.12402 182.698 7.06348C180.939 7.97884 179.566 9.3278 178.579 11.1104C177.591 12.8688 177.097 14.7959 177.097 16.8916C177.097 18.7464 177.459 20.3001 178.181 21.5527C178.928 22.7812 179.94 23.6846 181.216 24.2627C182.517 24.8408 184.721 25.4912 187.829 26.2139C190.382 26.792 192.189 27.2738 193.249 27.6592C194.333 28.0446 195.368 28.6829 196.356 29.5742C197.368 30.4414 198.139 31.5013 198.669 32.7539C199.199 33.9824 199.464 35.4277 199.464 37.0898C199.464 40.5586 198.404 43.6781 196.284 46.4482C194.188 49.2184 191.659 51.4346 188.696 53.0967C185.757 54.7347 182.24 55.5537 178.145 55.5537C174.219 55.5537 170.557 54.6263 167.161 52.7715L167.016 52.3379ZM213.847 6.91895C213.847 5.64225 214.245 4.52214 215.04 3.55859C215.859 2.57096 216.846 2.07715 218.003 2.07715C218.822 2.07715 219.484 2.33008 219.99 2.83594C220.496 3.3418 220.749 4.06445 220.749 5.00391C220.749 6.30469 220.375 7.47298 219.629 8.50879C218.882 9.52051 217.942 10.0264 216.81 10.0264C215.967 10.0264 215.256 9.7373 214.678 9.15918C214.124 8.58105 213.847 7.83431 213.847 6.91895ZM204.417 27.0811L204.055 26.25L204.164 25.7803C207.44 23.4196 209.957 21.7695 211.715 20.8301C213.498 19.8665 214.895 19.3848 215.907 19.3848C216.894 19.3848 217.388 20.0954 217.388 21.5166C217.388 22.167 217.256 23.0944 216.991 24.2988C216.75 25.4792 216.148 27.876 215.184 31.4893C212.559 41.221 211.246 46.9782 211.246 48.7607C211.246 49.7243 211.583 50.2061 212.257 50.2061C213.293 50.2061 215.172 49.1823 217.894 47.1348L218.255 47.2432L218.653 48.1826L218.581 48.6162C216.894 49.917 215.16 51.1696 213.378 52.374C211.595 53.5785 210.318 54.3372 209.547 54.6504C208.801 54.9876 208.174 55.1562 207.669 55.1562C206.946 55.1562 206.38 54.8431 205.97 54.2168C205.561 53.5905 205.356 52.8558 205.356 52.0127C205.356 50.9287 205.501 49.7725 205.79 48.5439C206.103 47.2913 206.476 45.9062 206.91 44.3887C208.476 38.8001 209.584 34.4401 210.234 31.3086C210.908 28.1771 211.246 26.262 211.246 25.5635C211.246 24.7445 210.969 24.335 210.415 24.335C210.053 24.335 209.704 24.4313 209.367 24.624C209.03 24.7926 207.512 25.6598 204.814 27.2256L204.417 27.0811ZM236.325 0.848633L237.264 1.53516C236.325 5.46159 234.362 14.6393 231.375 29.0684C229.231 39.3783 228.014 45.5329 227.725 47.5322C227.677 47.9658 227.653 48.3512 227.653 48.6885C227.653 49.1943 227.773 49.5918 228.014 49.8809C228.255 50.1699 228.52 50.3145 228.809 50.3145C229.604 50.3145 231.326 49.3148 233.976 47.3154L235.024 46.5566L235.385 46.665L235.783 47.6045L235.674 48.0381C229.845 52.7354 225.919 55.084 223.895 55.084C223.172 55.084 222.618 54.807 222.233 54.2529C221.872 53.723 221.691 52.9883 221.691 52.0488C221.691 51.0371 221.848 49.7604 222.161 48.2188C222.474 46.653 223.534 41.7871 225.34 33.6211C227.051 25.8405 228.243 20.0352 228.918 16.2051L230.182 8.97852C230.351 8.01497 230.435 7.26823 230.435 6.73828C230.435 6.18424 230.242 5.79883 229.857 5.58203C229.496 5.36523 228.845 5.25684 227.906 5.25684L224.871 5.2207L224.582 4.93164L224.69 4.02832L224.979 3.70312C229.508 2.98047 233.29 2.02897 236.325 0.848633ZM238.062 28.4541L240.989 20.1436C242.025 19.7822 243.048 19.6016 244.06 19.6016C244.903 19.6016 246.433 19.71 248.649 19.9268C250.6 20.1195 252.033 20.2158 252.949 20.2158C254.394 20.2158 255.707 20.0111 256.887 19.6016L257.538 20.6133C250.937 28.7311 247.637 36.4154 247.637 43.666C247.637 46.0026 248.131 47.8936 249.119 49.3389C250.106 50.7842 251.516 51.5068 253.346 51.5068C255.731 51.5068 257.971 50.3265 260.067 47.9658C262.163 45.6051 263.849 42.5579 265.126 38.8242C266.426 35.0664 267.077 31.8265 267.077 29.1045C267.077 25.9248 266.005 24.335 263.861 24.335C263.283 24.335 262.705 24.4795 262.127 24.7686L261.729 24.7324L261.259 23.9736V23.54C262.127 22.8656 263.042 21.9984 264.005 20.9385L265.126 19.71C265.535 19.4932 266.005 19.3848 266.535 19.3848C268.173 19.3848 269.437 20.0111 270.329 21.2637C271.244 22.5163 271.702 24.1423 271.702 26.1416C271.702 30.2126 270.473 34.6689 268.016 39.5107C265.583 44.3525 262.693 48.2067 259.344 51.0732C255.996 53.9157 253.045 55.3369 250.492 55.3369C248.3 55.3369 246.385 54.4818 244.747 52.7715C243.133 51.0612 242.326 48.7487 242.326 45.834C242.326 42.4616 243.085 39.1012 244.602 35.7529C246.144 32.4046 249.058 28.3577 253.346 23.6123C252.816 23.805 251.07 23.9014 248.107 23.9014L246.553 23.8291C244.963 23.8291 243.458 23.9616 242.037 24.2266C241.627 24.8288 240.82 26.262 239.616 28.5264L239.254 28.7432H238.279L238.062 28.4541ZM293.673 46.2676L294.071 47.1709L293.999 47.6406C288.073 52.651 283.05 55.1562 278.931 55.1562C277.582 55.1562 276.209 54.7829 274.812 54.0361C273.415 53.3135 272.367 52.2656 271.668 50.8926C270.994 49.5195 270.657 47.7611 270.657 45.6172C270.657 42.6061 271.151 39.4023 272.138 36.0059C273.15 32.5853 274.15 30.068 275.137 28.4541C276.149 26.8161 277.654 25.2865 279.654 23.8652C281.653 22.4199 283.544 21.2637 285.327 20.3965C287.133 19.5052 288.88 19.0596 290.566 19.0596C292.397 19.0596 293.89 19.5413 295.046 20.5049C296.203 21.4684 296.781 22.8053 296.781 24.5156C296.781 26.4668 296.227 28.2734 295.119 29.9355C294.011 31.5736 291.987 33.1273 289.048 34.5967C286.11 36.0661 282.593 37.2705 278.498 38.21L276.799 38.6074C276.318 40.9199 276.077 42.847 276.077 44.3887C276.077 46.5566 276.558 48.279 277.522 49.5557C278.486 50.8324 279.834 51.4707 281.569 51.4707C284.821 51.4707 288.723 49.6882 293.276 46.123L293.673 46.2676ZM277.052 36.8369C279.582 36.3792 281.978 35.6686 284.243 34.7051C286.531 33.7174 288.278 32.4167 289.482 30.8027C290.71 29.1647 291.325 27.5026 291.325 25.8164C291.325 24.5156 291 23.5521 290.349 22.9258C289.699 22.2995 288.916 21.9863 288 21.9863C286.989 21.9863 285.796 22.2754 284.423 22.8535C283.074 23.4316 281.87 24.4915 280.81 26.0332C279.774 27.5749 278.522 31.1761 277.052 36.8369ZM299.494 55.084L298.843 54.5781C300.529 49.0618 301.939 43.3047 303.071 37.3066C304.203 31.2845 304.769 27.4183 304.769 25.708C304.769 24.624 304.48 24.082 303.902 24.082C303.179 24.082 301.18 25.166 297.904 27.334L297.47 27.2256L297.109 26.4307L297.217 25.8887C299.361 24.1784 301.613 22.6126 303.974 21.1914C306.359 19.7702 308.105 19.0596 309.213 19.0596C310.177 19.0596 310.659 19.6618 310.659 20.8662C310.659 22.2633 309.779 26.9245 308.021 34.8496C310.261 30.9232 312.453 27.611 314.597 24.9131C316.741 22.1911 318.283 20.529 319.222 19.9268C320.186 19.3005 321.137 18.9873 322.077 18.9873C322.51 18.9873 322.944 19.0837 323.377 19.2764L323.522 19.6738C323.161 20.9987 322.751 23.5641 322.293 27.3701L321.282 27.5869C320.583 26.6234 319.776 26.1416 318.861 26.1416C318.186 26.1416 317.367 26.4186 316.404 26.9727C315.464 27.5267 314.296 28.6468 312.899 30.333C311.502 32.0192 310.285 33.9342 309.249 36.0781C308.238 38.1979 307.419 40.5225 306.792 43.0518C306.166 45.5811 305.371 49.1702 304.408 53.8193C301.975 54.3734 300.337 54.7949 299.494 55.084ZM387.013 47.8936L385.64 51.2539C380.292 53.9759 374.583 55.3369 368.513 55.3369C359.817 55.3369 352.747 52.8678 347.303 47.9297C341.883 42.9915 339.173 36.5358 339.173 28.5625C339.173 23.0703 340.522 18.2767 343.22 14.1816C345.942 10.0625 349.519 6.99121 353.952 4.96777C358.408 2.92025 363.406 1.89648 368.947 1.89648C372.15 1.89648 375.318 2.23372 378.45 2.9082C381.581 3.58268 384.195 4.38965 386.29 5.3291L386.543 5.69043C385.989 7.03939 385.471 10.3757 384.99 15.6992L384.737 15.9883H383.038L382.749 15.6992L382.388 9.55664C380.63 8.15951 378.498 7.07552 375.993 6.30469C373.511 5.50977 370.922 5.1123 368.224 5.1123C364.153 5.1123 360.504 5.99154 357.276 7.75C354.048 9.48438 351.543 12.0137 349.76 15.3379C347.978 18.638 347.086 22.6849 347.086 27.4785C347.086 32.2962 348.134 36.5238 350.23 40.1611C352.326 43.7985 355.18 46.5928 358.793 48.5439C362.431 50.4951 366.67 51.4707 371.512 51.4707C373.656 51.4707 375.716 51.266 377.691 50.8564C379.666 50.4469 381.304 49.9411 382.605 49.3389C383.93 48.7367 385.194 48.002 386.399 47.1348L387.013 47.8936ZM399.988 19.5654L400.674 20.0352C400.53 21.4323 400.421 23.9134 400.349 27.4785L403.059 24.0459C403.95 22.9137 404.733 22.0465 405.408 21.4443C406.106 20.818 406.913 20.3363 407.828 19.999C408.744 19.6618 409.683 19.4932 410.647 19.4932C411.707 19.4932 412.706 19.71 413.646 20.1436L413.899 20.6494C413.513 23.8532 413.297 26.6715 413.248 29.1045H411.622C410.659 26.8883 409.105 25.7803 406.961 25.7803C405.468 25.7803 404.167 26.262 403.059 27.2256C401.951 28.165 401.204 29.3574 400.819 30.8027C400.457 32.224 400.277 34.0306 400.277 36.2227V40.2334C400.277 40.9561 400.325 42.7266 400.421 45.5449C400.518 48.3633 400.614 49.9893 400.71 50.4229C400.831 50.8564 400.999 51.1816 401.216 51.3984C401.457 51.5911 401.758 51.7236 402.119 51.7959C402.505 51.8682 404.227 51.9886 407.286 52.1572L407.612 52.4463V53.9639L407.286 54.2891C404.083 54.0964 400.734 54 397.242 54C394.471 54 391.581 54.0964 388.57 54.2891L388.244 53.9639V52.4463L388.57 52.1572C390.906 52.0127 392.219 51.9043 392.508 51.832C392.821 51.7598 393.086 51.6152 393.303 51.3984C393.544 51.1576 393.701 50.8083 393.773 50.3506C393.869 49.8688 393.966 48.3151 394.062 45.6895C394.182 43.0397 394.243 41.0404 394.243 39.6914V32.5732C394.243 31.6097 394.194 30.2969 394.098 28.6348C394.002 26.9727 393.917 25.9489 393.845 25.5635C393.797 25.1781 393.616 24.901 393.303 24.7324C392.99 24.5397 392.364 24.4434 391.424 24.4434L388.389 24.4072L388.064 24.1182V22.5645L388.353 22.2754C392.954 21.7214 396.832 20.818 399.988 19.5654ZM444.362 48.6885L443.205 51.29C440.7 52.904 438.46 53.9518 436.485 54.4336C434.534 54.9154 432.787 55.1562 431.245 55.1562C428.355 55.1562 425.609 54.5902 423.007 53.458C420.43 52.3258 418.322 50.4108 416.684 47.7129C415.07 45.015 414.263 41.763 414.263 37.957C414.263 35.4277 414.576 33.1514 415.202 31.1279C415.829 29.0804 416.479 27.5628 417.154 26.5752C417.852 25.5876 419.02 24.4915 420.659 23.2871C422.297 22.0827 424.031 21.1191 425.862 20.3965C427.692 19.6738 429.668 19.3125 431.787 19.3125C434.678 19.3125 437.219 19.999 439.411 21.3721C441.628 22.721 443.181 24.4554 444.073 26.5752C444.964 28.695 445.409 30.9473 445.409 33.332C445.409 34.0788 445.373 34.8014 445.301 35.5L444.904 35.8975C443.266 36.2588 441.062 36.4997 438.291 36.6201C435.521 36.7406 433.69 36.8008 432.799 36.8008H421.201C421.249 41.7871 422.501 45.4606 424.958 47.8213C427.415 50.182 430.426 51.3623 433.992 51.3623C435.678 51.3623 437.292 51.0732 438.833 50.4951C440.399 49.917 442.049 49.11 443.784 48.0742L444.362 48.6885ZM421.201 33.9102C421.634 33.9824 423.296 34.0667 426.187 34.1631C429.102 34.2594 431.257 34.3076 432.655 34.3076C436.003 34.3076 438.038 34.2474 438.761 34.127C438.785 33.5488 438.797 33.1032 438.797 32.79C438.797 29.0563 438.038 26.2861 436.521 24.4795C435.003 22.6488 432.932 21.7334 430.306 21.7334C427.439 21.7334 425.199 22.7572 423.585 24.8047C421.995 26.8522 421.201 29.8874 421.201 33.9102ZM452.603 29.502L451.194 29.1406L450.905 28.7793V24.2988C455.192 21.1191 459.36 19.5293 463.407 19.5293C466.177 19.5293 468.477 20.0472 470.308 21.083C472.139 22.1188 473.463 23.4196 474.283 24.9854C475.102 26.527 475.511 28.3337 475.511 30.4053L475.33 37.668V48.4355C475.33 49.9049 475.427 50.7962 475.619 51.1094C475.836 51.4225 476.077 51.6393 476.342 51.7598C476.607 51.8561 477.101 51.9404 477.824 52.0127L479.883 52.1934L480.172 52.5186V53.9639L479.883 54.2529C478.125 54.1084 476.487 54.0361 474.969 54.0361C473.524 54.0361 471.789 54.1084 469.766 54.2529L469.224 53.7471L469.368 47.9297L461.491 54.0723C460.167 54.6263 458.721 54.9033 457.156 54.9033C455.228 54.9033 453.566 54.554 452.169 53.8555C450.796 53.1569 449.736 52.1813 448.99 50.9287C448.267 49.6761 447.906 48.1585 447.906 46.376C447.906 42.835 449.014 40.0768 451.23 38.1016C453.446 36.1022 459.492 34.404 469.368 33.0068C469.368 29.4417 468.574 26.9365 466.984 25.4912C465.394 24.0218 463.262 23.2871 460.588 23.2871C459.191 23.2871 457.914 23.4919 456.758 23.9014C455.626 24.3109 454.976 24.6481 454.807 24.9131C454.638 25.154 453.988 26.6234 452.856 29.3213L452.603 29.502ZM469.368 35.2109C462.624 36.3431 458.42 37.5596 456.758 38.8604C455.096 40.1611 454.265 42.1725 454.265 44.8945C454.265 48.6523 456.132 50.5312 459.866 50.5312C463.069 50.5312 466.237 48.6764 469.368 44.9668V35.2109ZM480.645 25.6357V24.6963L480.898 24.335C483.162 23.4919 484.993 22.709 486.39 21.9863C486.39 15.6992 486.318 12.0378 486.173 11.002C488.654 10.1348 490.69 9.20736 492.28 8.21973L493.147 8.94238C492.906 10.46 492.617 14.8682 492.28 22.167C493.484 22.1911 494.785 22.2031 496.182 22.2031C499.024 22.2031 501.06 22.1309 502.288 21.9863L502.541 22.2393L501.855 25.2744L501.566 25.5996C500.337 25.5755 498.976 25.5635 497.483 25.5635C496.134 25.5635 494.399 25.5755 492.28 25.5996L492.063 40.3057C492.063 43.7021 492.135 45.9303 492.28 46.9902C492.448 48.026 492.882 48.8451 493.58 49.4473C494.303 50.0254 495.363 50.3145 496.76 50.3145C498.374 50.3145 499.867 49.8929 501.24 49.0498L502.108 50.3506C501.53 50.7601 500.144 51.9645 497.952 53.9639C496.7 54.542 495.423 54.8311 494.122 54.8311C488.702 54.8311 485.992 52.2054 485.992 46.9541C485.992 45.027 486.041 43.389 486.137 42.04C486.161 41.6305 486.173 41.209 486.173 40.7754V25.7803H484.692C483.608 25.7803 482.367 25.8285 480.97 25.9248L480.645 25.6357ZM510.566 3.41406C511.698 3.41406 512.661 3.81152 513.456 4.60645C514.251 5.40137 514.649 6.36491 514.649 7.49707C514.649 8.60514 514.251 9.55664 513.456 10.3516C512.661 11.1465 511.698 11.5439 510.566 11.5439C509.458 11.5439 508.494 11.1585 507.675 10.3877C506.88 9.59277 506.483 8.62923 506.483 7.49707C506.483 6.36491 506.88 5.40137 507.675 4.60645C508.494 3.81152 509.458 3.41406 510.566 3.41406ZM513.637 19.5654L514.323 20.0352C514.058 23.1908 513.926 27.2015 513.926 32.0674V40.2334C513.926 40.7633 513.974 42.4736 514.07 45.3643C514.167 48.2308 514.263 49.9049 514.36 50.3867C514.48 50.8685 514.649 51.2178 514.865 51.4346C515.082 51.6514 515.347 51.7959 515.66 51.8682C515.973 51.9163 517.274 52.0127 519.563 52.1572L519.888 52.4463V53.9639L519.599 54.2891C516.588 54.0964 513.685 54 510.891 54C508.121 54 505.23 54.0964 502.219 54.2891L501.894 53.9639V52.4463L502.219 52.1572C504.556 52.0127 505.868 51.9043 506.157 51.832C506.471 51.7598 506.736 51.6152 506.952 51.3984C507.193 51.1576 507.35 50.8083 507.422 50.3506C507.518 49.8688 507.615 48.3151 507.711 45.6895C507.832 43.0397 507.892 41.0404 507.892 39.6914V32.5732C507.892 31.6097 507.844 30.2969 507.747 28.6348C507.651 26.9727 507.567 25.9489 507.494 25.5635C507.446 25.1781 507.265 24.901 506.952 24.7324C506.639 24.5397 506.013 24.4434 505.073 24.4434L502.038 24.4072L501.713 24.1182V22.5645L502.002 22.2754C506.603 21.7214 510.481 20.818 513.637 19.5654ZM521.192 37.4512C521.192 34.5846 521.782 31.8265 522.962 29.1768C524.142 26.5029 526.19 24.2025 529.105 22.2754C532.043 20.3242 535.524 19.3486 539.547 19.3486C544.606 19.3486 548.725 20.9505 551.904 24.1543C555.084 27.334 556.674 31.429 556.674 36.4395C556.674 41.9557 554.843 46.4964 551.182 50.0615C547.544 53.6266 543.148 55.4092 537.993 55.4092C534.621 55.4092 531.61 54.5059 528.96 52.6992C526.31 50.8685 524.347 48.6403 523.07 46.0146C521.818 43.389 521.192 40.5345 521.192 37.4512ZM528.021 34.958C528.021 38.3304 528.454 41.3535 529.321 44.0273C530.189 46.6771 531.562 48.8089 533.441 50.4229C535.319 52.0368 537.463 52.8438 539.872 52.8438C542.715 52.8438 545.063 51.7236 546.918 49.4834C548.773 47.2191 549.7 43.8226 549.7 39.2939C549.7 34.1631 548.689 29.9596 546.665 26.6836C544.666 23.4076 541.775 21.7695 537.993 21.7695C534.862 21.7695 532.417 22.9017 530.658 25.166C528.9 27.4303 528.021 30.6943 528.021 34.958ZM568.528 19.5654L569.215 20.0352C569.07 21.6491 568.974 23.7689 568.926 26.3945C570.853 24.8047 572.684 23.1908 574.418 21.5527C574.924 21.0951 575.394 20.7578 575.827 20.541C576.285 20.3242 577.032 20.0954 578.068 19.8545C579.103 19.6136 580.163 19.4932 581.247 19.4932C583.078 19.4932 584.848 19.8665 586.559 20.6133C588.293 21.36 589.594 22.2513 590.461 23.2871C591.352 24.2988 591.967 25.5033 592.304 26.9004C592.641 28.2975 592.81 30.0199 592.81 32.0674V38.4268C592.81 38.8363 592.87 41.8353 592.99 47.4238C593.039 49.7122 593.291 51.0732 593.749 51.5068C594.207 51.9404 595.7 52.1572 598.23 52.1572L598.519 52.4463V54L598.23 54.2891C595.17 54.0964 593.099 54 592.015 54C591.388 54 589.63 54.0964 586.739 54.2891L586.306 53.8916C586.619 50.7601 586.776 46.6771 586.776 41.6426V36.9092C586.776 34.0667 586.703 32.0192 586.559 30.7666C586.438 29.514 586.041 28.3818 585.366 27.3701C584.692 26.3343 583.789 25.5394 582.656 24.9854C581.524 24.4072 580.175 24.1182 578.609 24.1182C577.357 24.1182 576.285 24.2507 575.394 24.5156C574.502 24.7565 573.503 25.2744 572.395 26.0693C571.287 26.8402 570.468 27.5749 569.938 28.2734C569.408 28.9479 569.082 29.5863 568.962 30.1885C568.866 30.7666 568.818 32.0192 568.818 33.9463V40.2334C568.818 40.7633 568.866 42.4736 568.962 45.3643C569.058 48.2308 569.155 49.9049 569.251 50.3867C569.372 50.8685 569.54 51.2178 569.757 51.4346C569.974 51.6514 570.239 51.7959 570.552 51.8682C570.865 51.9163 572.166 52.0127 574.454 52.1572L574.779 52.4463V53.9639L574.49 54.2891C571.479 54.0964 568.577 54 565.782 54C563.012 54 560.122 54.0964 557.11 54.2891L556.785 53.9639V52.4463L557.11 52.1572C559.447 52.0127 560.76 51.9043 561.049 51.832C561.362 51.7598 561.627 51.6152 561.844 51.3984C562.085 51.1576 562.241 50.8083 562.314 50.3506C562.41 49.8688 562.506 48.3151 562.603 45.6895C562.723 43.0397 562.783 41.0404 562.783 39.6914V32.5732C562.783 31.6097 562.735 30.2969 562.639 28.6348C562.542 26.9727 562.458 25.9489 562.386 25.5635C562.338 25.1781 562.157 24.901 561.844 24.7324C561.531 24.5397 560.904 24.4434 559.965 24.4434L556.93 24.4072L556.605 24.1182V22.5645L556.894 22.2754C561.495 21.7214 565.373 20.818 568.528 19.5654ZM599.931 43.377H601.484L601.81 43.7021C601.858 45.7256 601.978 47.46 602.171 48.9053C602.918 50.0374 604.207 50.9648 606.037 51.6875C607.868 52.3861 609.675 52.7354 611.457 52.7354C614.011 52.7354 616.046 52.0488 617.564 50.6758C619.105 49.3027 619.876 47.6647 619.876 45.7617C619.876 44.7259 619.599 43.8346 619.045 43.0879C618.491 42.3171 617.648 41.6908 616.516 41.209C615.408 40.7031 613.408 40.113 610.518 39.4385C608.037 38.8604 606.302 38.4147 605.315 38.1016C604.327 37.7643 603.375 37.2103 602.46 36.4395C601.545 35.6686 600.846 34.7292 600.364 33.6211C599.883 32.4889 599.642 31.2484 599.642 29.8994C599.642 26.6715 600.918 24.0941 603.472 22.167C606.049 20.2158 609.253 19.2402 613.083 19.2402C614.697 19.2402 616.456 19.4691 618.359 19.9268C620.262 20.3604 621.707 20.7819 622.694 21.1914L623.02 21.6973C622.827 22.6608 622.707 25.1901 622.658 29.2852L622.333 29.6104H620.888L620.563 29.2852C620.466 27.8158 620.334 26.792 620.165 26.2139C619.997 25.6117 619.563 24.9733 618.864 24.2988C618.166 23.6003 617.178 23.0221 615.901 22.5645C614.625 22.0827 613.276 21.8418 611.855 21.8418C610.385 21.8418 609.145 22.0586 608.133 22.4922C607.145 22.9258 606.338 23.5882 605.712 24.4795C605.11 25.3467 604.809 26.4066 604.809 27.6592C604.809 28.5745 604.989 29.3936 605.351 30.1162C605.736 30.8389 606.314 31.429 607.085 31.8867C607.856 32.3203 608.663 32.6335 609.506 32.8262L613.444 33.8379C616.817 34.6569 619.226 35.3675 620.671 35.9697C622.14 36.5719 623.273 37.4873 624.068 38.7158C624.862 39.9202 625.26 41.3896 625.26 43.124C625.26 46.4482 623.887 49.3027 621.141 51.6875C618.395 54.0723 614.866 55.2646 610.554 55.2646C609.036 55.2646 607.145 55.096 604.881 54.7588C602.641 54.4215 600.726 54.0482 599.136 53.6387L598.955 53.1689L599.317 50.748C599.437 50.0013 599.509 49.2546 599.533 48.5078C599.557 47.737 599.582 46.1351 599.606 43.7021L599.931 43.377Z" fill="url(#paint0_radial_40_1799)"/>
<defs>
<radialGradient id="paint0_radial_40_1799" cx="0" cy="0" r="1" gradientUnits="userSpaceOnUse" gradientTransform="translate(312.5 37) rotate(180) scale(315.5 188.439)">
<stop stop-color="#FCA412"/>
<stop offset="1" stop-color="#161920"/>
</radialGradient>
</defs>
</svg>
